<?xml version="1.0" encoding="utf-8"?>
<!-- Generator: Adobe Illustrator 21.0.2, SVG Export Plug-In . SVG Version: 6.00 Build 0)  -->
<svg version="1.2" baseProfile="tiny" xmlns="http://www.w3.org/2000/svg" xmlns:xlink="http://www.w3.org/1999/xlink" x="0px"
	 y="0px" viewBox="0 0 256 256" xml:space="preserve">
<g id="img" display="none">
</g>
<g id="Layer_4">
</g>
<g id="Layer_6" display="none">
</g>
<g id="boxes">
</g>
<g id="border" display="none">
</g>
<g id="arrows">
	<path fill="#7FCEFF" d="M250.2,98.1c-3.1-11.5-45.5-3-54.1-2.1c-25.2,2.5-50.5,5.2-75.9,6.2c-23.8,1-47.7,0.5-71.5-0.2
		c-12.5-0.4-36.5-6.9-40.9,9.9c-1.7,6.7,0.5,16.4,0.1,23.6c-0.3,6.5-4.3,18.9,1.9,23.5c4.4,3.2,18.6,2.6,24.3,2.2
		c10-0.7,19.4-3.3,29.6-3.5c36.4-0.7,73.5-0.6,110-0.1c11,0.2,22,0.6,33,0.8c9,0.1,28.5,3.3,36.9-0.7
		C254.2,152.7,252.6,107.3,250.2,98.1z"/>
	<path fill="#7FCEFF" d="M250.4,199c-1.3-33.2-78.5-12.3-100.2-11.9c-19.4,0.3-38.8-1.4-58.1-2.5c-21.3-1.2-42.5,2.4-63.7,2.2
		c-4.8,0-16-3.6-19.9-0.4c-3.9,3.2-3.1,15.4-3.6,19.9c-2.1,17.3-2.8,34.9,18.6,37.4c39.2,4.7,80.2,0.3,119.2-3.1
		c24.2-2.1,48.3-4.3,72.5-7c8.3-0.9,25.9,2.2,31.6-4.3C252.4,223.1,250.7,206.8,250.4,199z"/>
	<path fill="#7FCEFF" d="M247.2,29.2c-0.8-8.3-1.3-19.6-10.9-22.3c-9.9-2.8-26.3,1.8-36.5,2.8c-21.7,2.1-43.3,4.4-65.1,5.5
		c-18.7,0.9-37.5,1.4-56.2,1.3c-15.3-0.1-33.2-2.5-47.8-1.3C8,17,6,34.6,7.8,53.5c0.8,8.9-0.9,20.1,9,23.5
		c6.3,2.2,15.6,0.1,21.8-0.8c17.4-2.4,34.5-1,52-1.3c22.6-0.4,45.2-1.9,67.9-2.1c18.4-0.2,36.7-0.6,55-2c6.7-0.5,25.7,0.4,30.8-4.7
		C250.3,60.2,248,36.9,247.2,29.2z"/>
	<path stroke="#000000" stroke-width="4" stroke-miterlimit="10" d="M226.5,202.1c-4.1,1-6.2,4.3-9,6.9c-2.5,2.3-5,4.4-7.5,6.6
		c-1,0.8-1.8,0.8-2.9,0c-3.3-2.4-11.8-8.5-15.1-10.8c-0.5-0.3-0.8-1-1-1.5c-0.1-0.1,0.5-0.8,0.6-0.7c0.5,0.1,1,0.4,1.5,0.7
		c2.4,1.8,9.8,7.7,12.3,9.4c2.1,1.4,4.2,1.1,6.1-0.6c4.4-3.7,8.8-7.4,13.2-11.2C226,199.7,227.4,201.9,226.5,202.1z"/>
	<path stroke="#000000" stroke-width="4" stroke-miterlimit="10" d="M190.2,126.3c-0.1-1.4,1-1.3,2-1c6.5,1.9,12.9,4,18.6,7.7
		c1.1,0.7,1.9,0.8,2.9-0.1c4-3.5,8-7,12.1-10.5c0.3-0.3,0.8-0.6,1.2-0.6c0.3,0,0.8,0.6,0.8,0.8c0,0.4-0.3,0.9-0.7,1.2
		c-2.9,2.4-5.8,4.7-8.7,7.2c-1.6,1.4-3.1,2.9-4.7,4.4c-1,1-1.9,1-3.1,0c-3.4-3.1-7.5-4.9-11.8-6.3
		C196,128.1,193.2,127.2,190.2,126.3z"/>
	<path stroke="#000000" stroke-width="4" stroke-miterlimit="10" d="M224.4,34.6c-0.8,0.9-1.6,1.8-2.5,2.6
		c-3.6,3.2-7.2,6.4-10.8,9.7c-1.6,1.4-3,3-4.6,4.4c-0.9,0.9-1.7,0.9-2.7-0.1c-2.8-2.7-9.7-8.3-12.6-11c-0.4-0.4-1-0.7-1.4-1.2
		c-0.7-0.8-2.8-1-1.5-2.7c0.1-0.2,2.2,0.7,3,1.4c2.6,2.6,8.5,8.9,12,10.6c1.4,0.7,2.5,1.1,3.8-0.2c4.5-4.3,9.2-8.6,13.8-12.8
		c0.8-0.7,2-1.1,2.9-1.6C224.1,34.2,224.2,34.4,224.4,34.6z"/>
</g>
</svg>
