<?xml version="1.0" encoding="utf-8"?>
<!-- Generator: Adobe Illustrator 21.0.2, SVG Export Plug-In . SVG Version: 6.00 Build 0)  -->
<svg version="1.2" baseProfile="tiny" xmlns="http://www.w3.org/2000/svg" xmlns:xlink="http://www.w3.org/1999/xlink" x="0px"
	 y="0px" viewBox="0 0 256 256" xml:space="preserve">
<g id="img" display="none">
</g>
<g id="Layer_4">
</g>
<g id="Layer_6" display="none">
</g>
<g id="boxes">
</g>
<g id="border" display="none">
</g>
<g id="arrows">
	<path fill="#FFFFFF" d="M227,202.9c-1.2-0.6-2.6-0.5-3.6,0.4c-3.4,3-6.9,5.9-10.3,8.8l-2.9,2.4c-1.7,1.4-2.9,0.9-3.7,0.4
		c-1.5-1-4.8-3.5-7.7-5.8c-1.9-1.5-3.6-2.8-4.6-3.5c-0.5-0.4-1.2-0.8-2.2-1c-0.6-0.1-1.5-0.1-2.4,1c-0.9,1-0.8,1.9-0.5,2.5
		c0.4,0.8,0.8,1.8,1.7,2.4c2.5,1.7,8,5.6,12,8.5c1.2,0.9,2.3,1.7,3.1,2.2c0.9,0.7,1.8,1,2.7,1c0.9,0,1.8-0.4,2.7-1.1l1.9-1.6
		c1.9-1.6,3.8-3.3,5.7-5c0.7-0.7,1.4-1.4,2.1-2.1c1.9-2,3.5-3.7,6-4.3l0,0c1-0.2,1.7-1,1.8-2C228.9,204.9,228.2,203.5,227,202.9z"/>
	<path fill="#FFFFFF" d="M198.3,132.9c4.9,1.6,8.3,3.4,11.1,5.9c0.9,0.8,1.9,1.3,2.9,1.3c1,0,2-0.4,2.9-1.3l0.9-0.8
		c1.2-1.2,2.5-2.4,3.7-3.5c1.6-1.4,3.3-2.7,4.9-4.1c1.3-1,2.5-2.1,3.8-3.1c0.6-0.5,1.3-1.5,1.4-2.6c0-0.7-0.2-1.4-0.8-2
		c-0.3-0.4-1-1-2-1c-1.1,0-2,0.6-2.6,1.1c-3.7,3.2-8,6.9-12.1,10.5c-0.1,0-0.1,0.1-0.1,0.1c-0.1,0-0.2-0.1-0.4-0.2
		c-5.9-3.8-12.4-5.9-19.1-7.9c-1.5-0.5-2.7-0.3-3.6,0.4c-0.4,0.4-1.2,1.2-1,2.7l0.1,1.3l4.1,1.3
		C194.4,131.7,196.3,132.3,198.3,132.9z"/>
	<path fill="#FFFFFF" d="M224.5,31.4l-1.5,0.8c-0.3,0.1-0.6,0.3-0.9,0.4c-0.8,0.4-1.7,0.8-2.5,1.5c-4.8,4.4-9.5,8.7-13.8,12.8
		c-0.4,0.4-0.4,0.4-1.6-0.2c-3-1.5-8.3-7.1-10.9-9.7l-0.5-0.5c-0.9-1-3.3-2.1-4.5-2.1l-1,0.1l-0.6,0.7c-0.7,0.9-1,1.8-0.8,2.7
		c0.3,1.3,1.4,2,2,2.3c0.1,0.1,0.3,0.2,0.4,0.2c0.4,0.4,0.7,0.7,1.1,0.9c0.2,0.1,0.3,0.2,0.4,0.4c1.3,1.2,3.3,2.9,5.4,4.7
		c2.8,2.3,5.6,4.7,7.1,6.2c0.9,0.9,1.8,1.3,2.8,1.3c0.9,0,1.8-0.4,2.7-1.2c0.5-0.5,0.9-0.9,1.4-1.4c1-1,2-2,3.1-3
		c1.8-1.7,3.7-3.3,5.5-5c1.7-1.6,3.5-3.1,5.2-4.7c0.7-0.6,1.3-1.3,1.9-1.9c0.2-0.3,0.5-0.5,0.8-0.8l1.2-1.2L224.5,31.4z"/>
	<path fill="#7AC943" d="M128.8,242.6c-11.4-12.9-28.1-22.3-41.6-32.9c-9.2-7.2-21.6-14.6-28.8-23.6c-3.6-4.5-6.1-0.8-4.3-8
		c1.4-5.6,4.1-4.4,7.5-6.8c9.8-6.9,14.4-2.1,23.7,6.1c11.2,9.9,22,20.5,33,30.6c3,2.7,22.5,17.1,22.7,19.9
		C141.5,234.7,133.2,237.4,128.8,242.6z"/>
	<path fill="#7AC943" d="M208,179.5c-14.3,9.6-25.8,24.9-38.1,36.9c-8.4,8.2-17.3,19.5-27.2,25.4c-5,3-1.6,5.9-8.5,3.2
		c-5.4-2.1-3.8-4.7-5.7-8.3c-5.6-10.6-0.2-14.6,9.1-22.7c11.3-9.8,23.3-19.1,34.7-28.7c3.1-2.6,19.9-20,22.7-19.9
		C201.8,165.9,203.4,174.5,208,179.5z"/>
	<path fill="#7AC943" d="M65.7,92.5c11.9,12.5,28.8,21.3,42.7,31.5c9.5,6.9,22.1,13.8,29.6,22.6c3.7,4.4,6.1,0.6,4.6,7.9
		c-1.2,5.7-4,4.5-7.2,7c-9.6,7.3-14.4,2.6-23.9-5.2c-11.6-9.5-22.7-19.8-34.1-29.5c-3.1-2.6-23.1-16.3-23.4-19.1
		C53.3,100.9,61.5,97.8,65.7,92.5z"/>
	<path fill="#7AC943" d="M206,104.5c-14.3,9.6-25.8,24.9-38.1,36.9c-8.4,8.2-17.3,19.5-27.2,25.4c-5,3-1.6,5.9-8.5,3.2
		c-5.4-2.1-3.8-4.7-5.7-8.3c-5.6-10.6-0.2-14.6,9.1-22.7c11.3-9.8,23.3-19.1,34.7-28.7c3.1-2.6,19.9-20,22.7-19.9
		C199.8,90.9,201.4,99.5,206,104.5z"/>
	<path fill="#7AC943" d="M67.9,15.7c11.1,13.1,27.5,23,40.8,33.9c9.1,7.4,21.3,15.1,28.3,24.2c3.5,4.6,6.1,0.9,4.1,8.1
		c-1.5,5.6-4.2,4.3-7.6,6.6c-10,6.7-14.5,1.7-23.5-6.6c-11-10.1-21.5-21-32.3-31.4c-2.9-2.8-22.1-17.6-22.2-20.4
		C55,23.3,63.4,20.8,67.9,15.7z"/>
	<path fill="#7AC943" d="M118.4,84.9c14.2-9.7,25.7-25,37.9-37.1c8.3-8.2,17.2-19.7,27-25.6c4.9-3,1.5-5.9,8.5-3.3
		c5.4,2.1,3.8,4.6,5.8,8.2c5.6,10.6,0.3,14.6-9,22.7c-11.2,9.9-23.1,19.2-34.5,28.9c-3.1,2.6-19.8,20.2-22.6,20
		C124.7,98.5,123,89.9,118.4,84.9z"/>
</g>
</svg>
